<?xml version="1.0" encoding="utf-8"?>
<!-- Generator: Adobe Illustrator 17.1.0, SVG Export Plug-In . SVG Version: 6.00 Build 0)  -->
<!DOCTYPE svg PUBLIC "-//W3C//DTD SVG 1.1//EN" "http://www.w3.org/Graphics/SVG/1.1/DTD/svg11.dtd">
<svg version="1.1" id="Layer_1" xmlns="http://www.w3.org/2000/svg" xmlns:xlink="http://www.w3.org/1999/xlink" x="0px" y="0px"
	 viewBox="0 0 114 28" enable-background="new 0 0 114 28" xml:space="preserve">
<g>
	<path fill="#FAFAFA" d="M1,26.5l1.9-0.1L12,2.5h2l9,23.9l1.9,0.1V28h-6.3v-1.5l2.2-0.2l-2.1-5.7H7.2L5,26.3l2.2,0.2V28H1V26.5z
		 M7.9,18.7H18L13,5.1h-0.1L7.9,18.7z"/>
	<path fill="#FAFAFA" d="M27.4,26.5l2.9-0.2V10.8l-2.9-0.2V9h4.7l0.2,3.3c0.6-1.2,1.4-2.1,2.5-2.7s2.3-1,3.7-1
		c2.1,0,3.6,0.6,4.7,1.9s1.6,3.2,1.6,5.9v9.8l2.9,0.2V28h-7.8v-1.5l2.9-0.2v-9.8c0-2.2-0.4-3.7-1.2-4.6s-2-1.4-3.5-1.4
		s-2.7,0.4-3.6,1.2s-1.6,1.8-2,3.1v11.5l2.9,0.2V28h-7.8v-1.5H27.4z"/>
	<path fill="#FAFAFA" d="M64.1,28c-0.1-0.6-0.2-1.2-0.3-1.7s-0.1-0.9-0.1-1.4c-0.7,1-1.6,1.8-2.8,2.5s-2.5,1-4,1
		c-1.9,0-3.3-0.5-4.3-1.4s-1.5-2.3-1.5-3.9c0-1.8,0.8-3.2,2.3-4.2s3.6-1.5,6.2-1.5h4.2v-2.5c0-1.4-0.4-2.4-1.3-3.2s-2.1-1.2-3.7-1.2
		c-1.1,0-2,0.1-2.9,0.4s-1.6,0.7-2.2,1.2l-0.2,2.5h-1.7v-3.7c0.9-0.7,1.9-1.2,3.2-1.7s2.5-0.6,3.9-0.6c2.1,0,3.8,0.5,5.1,1.6
		c1.3,1.1,1.9,2.6,1.9,4.6v9.4c0,0.4,0,0.8,0,1.1s0.1,0.7,0.1,1l1.9,0.1V28H64.1z M57.2,26.5c1.5,0,2.9-0.4,4-1.1s2-1.6,2.5-2.7
		v-3.8h-4.2c-1.9,0-3.4,0.4-4.6,1.2s-1.7,1.8-1.7,3c0,1,0.4,1.8,1.1,2.5S56,26.5,57.2,26.5z"/>
	<path fill="#FAFAFA" d="M70.4,10.5V9h4.7l0.2,3.1c0.6-1.1,1.4-2,2.4-2.6s2.2-0.9,3.6-0.9c1.5,0,2.7,0.4,3.6,1.1s1.7,1.8,2.1,3.2
		c0.6-1.3,1.4-2.4,2.5-3.2s2.4-1.2,3.9-1.2c2,0,3.6,0.7,4.7,2s1.7,3.4,1.7,6.3v9.3l2.9,0.2V28h-7.9v-1.5l2.9-0.2V17
		c0-2.3-0.4-4-1.2-5s-2-1.5-3.5-1.5c-1.6,0-2.9,0.5-3.8,1.6s-1.4,2.4-1.6,4c0,0.1,0,0.2,0,0.3s0,0.2,0,0.3v9.6l2.9,0.2V28h-7.8v-1.5
		l2.9-0.2v-9.4c0-2.3-0.4-3.9-1.3-4.9s-2-1.5-3.5-1.5s-2.7,0.4-3.6,1.1s-1.5,1.8-1.8,3v11.6l2.9,0.2V28h-7.8v-1.5l2.9-0.2V10.8
		L70.4,10.5z"/>
	<path fill="#FAFAFA" d="M105.2,26.5l2.9-0.2V10.8l-2.9-0.2V9h5v17.2l2.9,0.2V28h-7.8L105.2,26.5L105.2,26.5z M110.1,3.5H108v-3h2.1
		V3.5z"/>
</g>
</svg>
